<svg viewBox="0 0 123 123" fill="none" xmlns="http://www.w3.org/2000/svg">
  <defs>
    <filter id="ds" x="0" y="0" width="123" height="123" filterUnits="userSpaceOnUse" color-interpolation-filters="sRGB">
      <feFlood flood-opacity="0" result="BackgroundImageFix"/>
      <feColorMatrix in="SourceAlpha" values="0 0 0 0 0 0 0 0 0 0 0 0 0 0 0 0 0 0 127 0"/>
      <feOffset dy="3"/>
      <feGaussianBlur stdDeviation="8"/>
      <feColorMatrix values="0 0 0 0 0 0 0 0 0 0 0 0 0 0 0 0 0 0 0.25 0"/>
      <feBlend in2="BackgroundImageFix" result="effect1_dropShadow"/>
      <feColorMatrix in="SourceAlpha" values="0 0 0 0 0 0 0 0 0 0 0 0 0 0 0 0 0 0 127 0"/>
      <feOffset dy="3"/>
      <feGaussianBlur stdDeviation="3"/>
      <feColorMatrix values="0 0 0 0 0.2 0 0 0 0 0.2 0 0 0 0 0.2 0 0 0 0.1 0"/>
      <feBlend in2="effect1_dropShadow" result="effect2_dropShadow"/>
      <feBlend in="SourceGraphic" in2="effect2_dropShadow" result="shape"/>
    </filter>
  </defs>
  <g filter="url(#ds)">
    <circle cx="61.5" cy="58.5" r="45.5" fill="#fff"/>
  </g>
  <path d="M60 85c2.6 0 4.8-2.1 4.8-4.7h-9.5c0 2.6 2 4.7 4.7 4.7zm14.3-14.2V59.1c0-7.3-4-13.4-10.7-15v-1.6c0-2-1.6-3.5-3.6-3.5s-3.6 1.6-3.6 3.5v1.6c-6.8 1.6-10.6 7.7-10.6 15v11.7L41 75.6v2.3h38v-2.3l-4.8-4.8z" fill="#333"/>
  <path d="M85.4 47.6a10.7 10.7 0 11-21.4 0 10.7 10.7 0 0121.4 0z" fill="#00ADEE" stroke="#00ADEE" stroke-width="1.3"/>
  <path d="M78.5 43v1l-4.3 9.5h-1.6l4.2-9.3H72v2h-1.5v-3.3h8z" fill="#fff"/>

</svg>
