<svg viewBox="0 0 15 15" xmlns="http://www.w3.org/2000/svg">
  <path d="M11.81.47H3.18A2.72 2.72 0 00.47 3.19v8.62c0 1.5 1.22 2.72 2.71 2.72h8.63c1.5 0 2.72-1.22 2.72-2.71V3.18c0-1.5-1.22-2.72-2.72-2.72zm.86 1.57h.3v2.33l-2.34.01-.01-2.33 2.05-.01zM7.5 5.14c1.95 0 2.35 1.84 2.35 2.36a2.36 2.36 0 01-4.7 0c0-.52.4-2.35 2.35-2.35zm5.5 6.5c0 .75-.61 1.35-1.36 1.35H3.33c-.74 0-1.35-.6-1.35-1.35v-5.7h1.95a4.48 4.48 0 00-.28 1.56 3.85 3.85 0 007.7 0c0-.51-.11-1.12-.29-1.57h1.93v5.71z" fill="#00ADEE"/>
</svg>
